<svg xmlns="http://www.w3.org/2000/svg" viewBox="0 0 200 200" width="100%" height="100%">
  <circle cx="95" cy="95" r="46" stroke="#38BDF8" stroke-width="7" fill="none" />
  
  <line x1="128" y1="128" x2="162" y2="162" stroke="#38BDF8" stroke-width="9" stroke-linecap="round" />

  <g stroke="#475569" stroke-width="1.5">
    <line x1="80" y1="80" x2="100" y2="75" />
    <line x1="80" y1="80" x2="95" y2="95" />
    <line x1="80" y1="80" x2="73" y2="100" />
    <line x1="100" y1="75" x2="115" y2="90" />
    <line x1="100" y1="75" x2="95" y2="95" />
    <line x1="115" y1="90" x2="110" y2="110" />
    <line x1="115" y1="90" x2="95" y2="95" />
    <line x1="110" y1="110" x2="90" y2="115" />
    <line x1="110" y1="110" x2="95" y2="95" />
    <line x1="90" y1="115" x2="73" y2="100" />
    <line x1="90" y1="115" x2="95" y2="95" />
    <line x1="73" y1="100" x2="95" y2="95" />
    
    <line x1="80" y1="80" x2="85" y2="88" />
    <line x1="100" y1="75" x2="85" y2="88" />
    <line x1="73" y1="100" x2="85" y2="88" />
    <line x1="95" y1="95" x2="85" y2="88" />
    <line x1="115" y1="90" x2="105" y2="103" />
    <line x1="110" y1="110" x2="105" y2="103" />
    <line x1="95" y1="95" x2="105" y2="103" />
    <line x1="85" y1="88" x2="105" y2="103" />
  </g>

  <circle cx="95" cy="95" r="5.5" fill="#34D399" />
  <circle cx="80" cy="80" r="4.5" fill="#38BDF8" />
  <circle cx="100" cy="75" r="4.5" fill="#38BDF8" />
  <circle cx="115" cy="90" r="4.5" fill="#38BDF8" />
  <circle cx="110" cy="110" r="4.5" fill="#38BDF8" />
  <circle cx="90" cy="115" r="4.5" fill="#38BDF8" />
  <circle cx="73" cy="100" r="4.5" fill="#38BDF8" />
  <circle cx="85" cy="88" r="4" fill="#818CF8" />
  <circle cx="105" cy="103" r="4" fill="#818CF8" />
</svg>
