<svg xmlns="http://www.w3.org/2000/svg" viewBox="0 0 620 200" width="100%" height="100%">
  <rect width="620" height="200" rx="16" fill="#0B0F19" />

  <g stroke="#1E293B" stroke-width="1">
    <line x1="40" y1="0" x2="40" y2="200" />
    <line x1="80" y1="0" x2="80" y2="200" />
    <line x1="0" y1="40" x2="620" y2="40" />
    <line x1="0" y1="160" x2="620" y2="160" />
  </g>

  <circle cx="120" cy="100" r="42" stroke="#38BDF8" stroke-width="6" fill="none" />
  <line x1="150" y1="130" x2="180" y2="160" stroke="#38BDF8" stroke-width="8" stroke-linecap="round" />

  <g stroke="#475569" stroke-width="1.5">
    <line x1="105" y1="85" x2="125" y2="80" />
    <line x1="105" y1="85" x2="120" y2="100" />
    <line x1="105" y1="85" x2="98" y2="105" />
    <line x1="125" y1="80" x2="140" y2="95" />
    <line x1="125" y1="80" x2="120" y2="100" />
    <line x1="140" y1="95" x2="135" y2="115" />
    <line x1="140" y1="95" x2="120" y2="100" />
    <line x1="135" y1="115" x2="115" y2="120" />
    <line x1="135" y1="115" x2="120" y2="100" />
    <line x1="115" y1="120" x2="98" y2="105" />
    <line x1="115" y1="120" x2="120" y2="100" />
    <line x1="98" y1="105" x2="120" y2="100" />
    <line x1="105" y1="85" x2="110" y2="93" />
    <line x1="125" y1="80" x2="110" y2="93" />
    <line x1="98" y1="105" x2="110" y2="93" />
    <line x1="120" y1="100" x2="110" y2="93" />
    <line x1="140" y1="95" x2="130" y2="108" />
    <line x1="135" y1="115" x2="130" y2="108" />
    <line x1="120" y1="100" x2="130" y2="108" />
    <line x1="110" y1="93" x2="130" y2="108" />
  </g>

  <circle cx="120" cy="100" r="5" fill="#34D399" /> <circle cx="105" cy="85" r="4" fill="#38BDF8" />
  <circle cx="125" cy="80" r="4" fill="#38BDF8" />
  <circle cx="140" cy="95" r="4" fill="#38BDF8" />
  <circle cx="135" cy="115" r="4" fill="#38BDF8" />
  <circle cx="115" cy="120" r="4" fill="#38BDF8" />
  <circle cx="98" cy="105" r="4" fill="#38BDF8" />
  <circle cx="110" cy="93" r="3.5" fill="#818CF8" />
  <circle cx="130" cy="108" r="3.5" fill="#818CF8" />

  <text x="210" y="112" font-family="system-ui, -apple-system, sans-serif" font-size="52" font-weight="800" letter-spacing="-1px">
    <tspan fill="#FFFFFF">Pesquis</tspan><tspan fill="#38BDF8">AI</tspan>
  </text>

  <text x="212" y="142" font-family="system-ui, -apple-system, sans-serif" font-size="11" font-weight="600" fill="#94A3B8" letter-spacing="1.5px">
    PESQUISA CIENTÍFICA COM SUPORTE DE IA
  </text>
</svg>
